<?xml version="1.0" encoding="utf-8"?>
<!-- Generator: Adobe Illustrator 24.3.0, SVG Export Plug-In . SVG Version: 6.00 Build 0)  -->
<svg version="1.1" id="Layer_1" xmlns="http://www.w3.org/2000/svg" xmlns:xlink="http://www.w3.org/1999/xlink" x="0px" y="0px"
	 viewBox="0 0 1412.47 841.89" style="enable-background:new 0 0 1412.47 841.89;" xml:space="preserve">
<style type="text/css">
	.st0{fill:#D22D24;}
	.st1{fill:#FBEB5E;}
</style>
<path class="st0" d="M34.92,734.7c7.39-3.41,14.96-6.48,22.15-10.27c24.64-13,46.09-29.35,56.63-56.47
	c4.76-12.24,6.65-25.18,6.73-38.19c0.27-41.81,0.11-83.62,0.07-125.42c0-2.32-0.27-4.66-0.59-6.96
	c-2.29-16.17-8.49-22.91-24.53-26.74c-0.65-0.15-1.29-0.35-1.94-0.47c-1.52-0.3-3.16-0.59-2.95-2.63c0.23-2.19,2.07-1.8,3.49-1.74
	c5.82,0.26,11.64,0.64,17.46,0.9c7.82,0.35,15.64,0.74,23.47,0.89c3.02,0.06,4.5,0.75,4.49,4.19c-0.21,52.64,0.08,105.28-0.64,157.9
	c-0.26,19-3.08,38-12.93,54.88c-13.68,23.44-34.92,37.34-59.98,46.19c-9.41,3.32-19.35,4.35-28.93,6.93
	C33.83,738.31,35.18,735.97,34.92,734.7z"/>
<path class="st0" d="M1314.04,279.94c0,6.28,0,12.55,0,18.83c-2.3,22.71-8.83,44.01-21.81,62.99
	c-15.12,22.12-34.95,38.53-59.78,48.87c-7.8,3.25-15.39,7.02-24.41,11.16c6.87-8.25,12.7-15.38,18.68-22.38
	c24.24-28.36,29.65-60.78,21.24-96.38c-6.55-27.72-19.16-52.66-33.91-76.76c-13.11-21.41-27.34-42.17-37.89-65.09
	c-10.96-23.83-16.57-48.43-11.43-74.71c2.73-13.96,7.65-27.03,15.32-39.55c2.01,3.63,1.49,7.05,1.76,10.26
	c2.26,26.42,15.04,47.89,31.53,67.63c16.13,19.31,35.03,35.95,52.35,54.12c20.78,21.8,36.59,46.44,44.12,75.92
	C1311.93,263.1,1313.1,271.5,1314.04,279.94z"/>
<path class="st0" d="M1097.4,47.06c8.64,15.03,14.4,30.78,16.43,47.85c3.33,28.04-5.68,53.21-18.31,77.44
	c-12.54,24.06-28.38,46.17-41.71,69.78c-12.1,21.43-21.38,43.92-26.05,68.19c-6.13,31.87-0.14,60.85,20.49,86.34
	c5.42,6.71,11.05,13.25,16.56,19.89c0.91,1.1,2.22,1.97,2.35,4.24c-6.06-2.8-11.72-5.72-17.61-8.09
	c-27.81-11.2-50.78-28.55-66.54-54.23c-23.88-38.92-25.81-79.89-9.55-122.11c9.58-24.88,25.73-45.2,44.27-63.91
	c14.78-14.93,30.24-29.21,43.97-45.14c12.91-14.99,24.26-31,29.95-50.34c2.32-7.87,3.22-15.94,4.08-24.04
	C1095.93,51.04,1095.48,48.97,1097.4,47.06z"/>
<path class="st0" d="M691.25,668.55c-17.46,0.13-33.35-2.15-48.44-8.68c-23.55-10.19-39.38-27.81-47.34-51.86
	c-9.8-29.64-9.81-59.8,0.61-89.27c11.45-32.37,35.87-49.92,68.98-55.85c21.96-3.93,43.89-3.03,65.2,3.97
	c29.13,9.56,48.6,29.08,56.83,58.73c7.75,27.92,7.67,56.01-1.94,83.57c-11.69,33.53-36.86,50.93-70.69,57.39
	C706.44,668.09,698.31,668.84,691.25,668.55z M610.44,572.16c-0.11,6.68,1.03,18.91,4.49,30.84c5.94,20.53,17.94,36.01,38.31,43.69
	c21.55,8.12,43.7,8.27,65.85,2.66c20.76-5.26,35.75-17.96,43.21-37.99c11.4-30.6,11.27-61.73,0.23-92.4
	c-7.16-19.89-21.74-32.67-42.14-38.6c-17.96-5.22-36.11-5.57-54.33-1.69c-20.8,4.43-36.35,15.78-45.54,35.29
	C612.67,530.61,610.56,548.34,610.44,572.16z"/>
<path class="st0" d="M297.6,468.68c1.54-1.57,3.48-0.88,5.2-0.89c17.33-0.1,34.64-0.51,51.92-1.86c1.46-0.11,3.71-1.13,4.14,1.29
	c0.41,2.33-1.96,2.22-3.4,2.81c-1.23,0.5-2.54,0.84-3.73,1.42c-6.38,3.11-7.88,7.78-4.35,13.89c2.85,4.94,6.59,9.19,10.7,13.11
	c17.1,16.35,35.9,30.72,53.81,46.12c0.25,0.22,0.54,0.39,0.81,0.59c3.31,2.41,5.96,7.47,9.73,6.96c3.29-0.44,6.11-4.74,9.02-7.45
	c13.13-12.19,26.28-24.37,39.29-36.68c4.61-4.36,8.62-9.28,11.09-15.25c4.39-10.6,0.76-18.86-9.92-22.69
	c-0.63-0.22-1.28-0.38-1.91-0.6c-1.09-0.39-2.35-0.66-2.19-2.25c0.18-1.71,1.56-1.46,2.67-1.46c1.66,0,3.33,0.08,4.99,0.22
	c24.46,2.05,48.9,1.97,73.36-0.06c1.6-0.13,4.01-1.29,4.68,1.28c0.53,2.04-1.63,2.33-2.96,2.61c-19.28,4.06-33.64,16.09-47.44,29.09
	c-23.02,21.68-46.07,43.33-69.2,64.89c-2.25,2.1-3.4,4.14-3.36,7.28c0.16,15.66,0.04,31.32,0.15,46.97
	c0.06,8.57,1.34,16.98,5.31,24.68c4.81,9.32,11.82,16.18,22.46,18.57c1.14,0.25,2.27,0.53,3.37,0.9c0.94,0.31,1.98,0.68,1.86,1.97
	c-0.15,1.62-1.43,1.64-2.6,1.62c-2.83-0.06-5.66-0.17-8.49-0.3c-12.14-0.56-24.28-1.34-36.43-1.59c-3.96-0.08-4.59-1.48-4.58-5
	c0.13-29.65,0.01-59.3,0.15-88.95c0.02-3.65-1.01-6.07-3.9-8.46c-35.63-29.51-71.14-59.15-106.66-88.8
	C299.85,471.55,298.14,470.66,297.6,468.68z"/>
<path class="st0" d="M93.11,335.81c0-30.81,0.07-61.63-0.1-92.44c-0.02-4.19,1.25-5.3,5.35-5.39c12.82-0.27,25.64-0.84,38.44-1.6
	c33.47-2,57.78,12.29,72.32,42.61c5.79,12.07,8.25,24.97,9.29,38.11c1.76,22.21,1.25,44.37-5.68,65.78
	c-8.28,25.58-23.83,44.48-50.98,51.43c-14.43,3.69-29.13,2.08-43.75,1.05c-6.64-0.47-13.3-1.11-19.94-0.99
	c-4.11,0.07-5.03-1.24-5.02-5.1C93.18,398.1,93.12,366.95,93.11,335.81z M107.12,329.31c0,16.82-0.18,33.65,0.08,50.47
	c0.12,7.64,0.75,15.32,1.74,22.9c2.48,19.12-0.7,17.1,19.61,19.76c36.7,4.8,62.6-12.35,71.8-47.45c6.97-26.58,6.79-53.45-1.32-79.88
	c-12.33-40.15-46.86-51.33-81.4-42.84c-8.47,2.08-8.68,2.81-9.41,11.61C106.4,285.67,107.03,307.5,107.12,329.31z"/>
<path class="st0" d="M881,354.76c-8.66,0-17.33,0.13-25.99-0.06c-3.05-0.07-4.86,0.73-6.13,3.67
	c-5.74,13.29-11.72,26.47-17.49,39.75c-1.66,3.82-2.49,7.88-2.81,12.09c-0.69,9.35,2.41,16.65,10.77,21.36
	c1.46,0.82,3.21,1.55,2.45,3.69c-0.61,1.74-2.21,1.15-3.45,0.96c-15.26-2.44-30.53-2.09-45.81-0.22c-1.28,0.16-3.12,1.23-3.75-1.05
	c-0.44-1.57,0.64-2.43,1.78-3.23c13.31-9.28,21.65-22.5,28.2-36.82c18.47-40.4,36.57-80.98,54.9-121.44
	c1.07-2.35,1.18-4.21-0.01-6.54c-7.71-15.07-19.35-24.72-36.5-27.01c-1.51-0.2-4.04,0.3-3.99-1.93c0.06-2.7,2.74-1.86,4.33-1.79
	c12.48,0.54,24.95,1.34,37.43,1.79c3.14,0.11,3.78,2.11,4.68,4.25c9.6,22.86,19.18,45.73,28.8,68.58
	c16.59,39.41,33.19,78.82,49.79,118.22c2.15,5.1,2.04,5.28-3.24,5.56c-9.64,0.52-19.29,1.06-28.93,1.58
	c-1.42,0.08-3.27,0.87-3.73-1.25c-0.47-2.13,1.59-2.15,2.87-2.72c6.9-3.08,9.84-7.76,9.33-15.39c-0.46-6.87-2.36-13.46-4.93-19.8
	c-5.19-12.8-10.72-25.46-15.82-38.3c-1.29-3.24-3.03-4.1-6.29-4.02C898.66,354.89,889.83,354.75,881,354.76z M883.07,285.92
	c-0.44,0.02-0.88,0.04-1.32,0.05c-7.82,17.22-15.65,34.44-23.45,51.67c-1.57,3.47,1.07,3,2.99,3c13.47,0.03,26.95-0.07,40.42,0.08
	c3.38,0.04,4.05-0.89,2.72-3.95c-2.92-6.7-5.63-13.49-8.46-20.23C891.69,306.32,887.37,296.12,883.07,285.92z"/>
<path class="st0" d="M1012.86,553.91c0.01,20.49-0.07,40.98,0.04,61.46c0.05,9.19,0.93,18.31,4.77,26.85
	c4.38,9.72,11.89,15.8,22.04,18.75c1.44,0.42,2.89,0.8,4.32,1.24c0.96,0.29,1.92,0.63,1.83,1.95c-0.12,1.63-1.27,1.73-2.49,1.68
	c-4.16-0.18-8.32-0.39-12.48-0.58c-10.65-0.49-21.3-1.31-31.95-1.31c-4.84,0-5.66-1.71-5.65-6c0.11-58.47,0.05-116.93,0.13-175.4
	c0.01-4.75-2.15-10.86,1.12-13.91c2.98-2.78,8.93-0.77,13.57-0.82c32.48-0.39,64.97,0.72,97.43-0.91c4.49-0.22,8.97-0.6,13.45-1.04
	c2.59-0.25,3.58,0.61,3.45,3.32c-0.72,14.47-1.33,28.94-1.96,43.41c-0.1,2.22-0.53,3.81-3.34,3.88c-3.09,0.08-2.92-2.04-3.22-3.98
	c-2.95-19.2-11.07-27.27-30.26-30.2c-15.91-2.43-31.93-1.12-47.9-1.42c-6-0.11-12.01,0.24-17.99-0.1c-4.1-0.23-5.02,1.34-4.99,5.16
	C1012.93,508.6,1012.85,531.26,1012.86,553.91z"/>
<path class="st0" d="M976.48,566.16c0,30.81-0.08,61.63,0.09,92.44c0.02,4.12-1.06,5.38-5.26,5.38
	c-13.99,0.01-27.97,0.63-41.92,1.76c-1.7,0.14-4.49,1.6-4.94-1.45c-0.37-2.52,2.32-2.31,3.96-2.77
	c18.08-5.06,26.32-15.38,28.32-35.35c0.77-7.64,1-15.28,1-22.95c-0.01-38.98-0.09-77.95,0.07-116.93c0.02-4.39-1.09-5.62-5.54-5.51
	c-21.31,0.53-42.62-0.37-63.94,0.63c-18.55,0.87-29.16,10.96-34.76,27.82c-0.97,2.91-0.5,8.29-5.73,7.02
	c-4.57-1.11-2.25-5.71-2-8.51c1.15-12.92,3.36-25.76,3.22-38.79c-0.04-3.73,2.16-3.47,4.59-3.17c11.1,1.38,22.27,1.45,33.42,1.55
	c27.65,0.24,55.3,0.21,82.96,0.3c6.45,0.02,6.46,0.04,6.46,6.59C976.48,504.86,976.48,535.51,976.48,566.16z"/>
<path class="st0" d="M720.76,383.7c0-14.66-0.06-29.32,0.05-43.98c0.02-3.17-0.8-5.62-2.91-8.1c-25.06-29.6-50-59.29-74.93-88.99
	c-0.89-1.06-2.77-2-1.98-3.65c0.65-1.38,2.42-0.61,3.7-0.68c11.81-0.6,23.62-1.17,35.44-1.7c1.23-0.06,2.94-0.74,3.52,0.9
	c0.7,2.01-1.26,2.35-2.49,3.07c-6.76,3.99-8.26,8.2-5.28,15.45c2.49,6.04,5.99,11.55,10.11,16.58
	c13.19,16.09,26.56,32.03,39.78,48.09c1.73,2.1,2.76,2.82,4.73,0.14c10.94-14.88,22.13-29.58,33.03-44.5
	c4.16-5.69,7.15-12.05,7.66-19.26c0.5-7.15-1.3-13.24-8.38-16.61c-1.36-0.65-3.1-1.13-2.42-3.09c0.57-1.64,2.26-1.12,3.51-0.99
	c17.78,1.86,35.56,1.91,53.35,0.03c1.15-0.12,2.61-0.34,3.04,1.02c0.51,1.63-0.87,2.43-2.15,2.86
	c-14.21,4.83-23.17,15.79-31.69,27.2c-11.74,15.7-23.33,31.5-35.03,47.22c-4.44,5.97-8.81,12.01-13.61,17.68
	c-2.9,3.42-3.97,6.93-3.85,11.36c0.52,18.64-0.78,37.31,0.96,55.94c0.56,6.01,2.05,11.8,4.46,17.32c3.13,7.18,8.15,12.48,15.59,15.3
	c1.21,0.46,2.82,0.76,2.38,2.59c-0.45,1.84-2.07,1.31-3.32,1.23c-10.14-0.62-20.27-1.39-30.42-1.88c-3.57-0.17-2.83-2.57-2.84-4.57
	c-0.04-15.33-0.02-30.65-0.02-45.98C720.75,383.7,720.75,383.7,720.76,383.7z"/>
<path class="st1" d="M1124.86,249.47c1.43,15.84-5.91,28.38-12.68,41.05c-8.77,16.42-20.63,31.16-26.46,49.17
	c-3.18,9.82-6.11,19.81-4.74,30.14c0.97,7.33,2.65,14.65,7.73,20.88c3.87,4.74,6.48,10.44,11.12,14.73
	c1.57,1.45,0.73,3.02-1.75,3.11c-1.65,0.06-2.71-0.95-4.03-1.6c-11.64-5.75-22.42-12.57-30.92-22.66
	c-6.3-7.48-9.65-16.29-12.33-25.44c-1.92-6.58-2.61-13.36-1.98-20.18c1.34-14.45,6.25-27.63,14.43-39.63
	c6.77-9.93,16.22-17.37,24.1-26.25c8.8-9.92,19.09-18.7,24.23-31.58c2.07-5.18,3.52-10.24,3.53-15.78c0-1.48-0.82-3.73,1.54-4.16
	c2.24-0.41,3.35,1.62,3.72,3.24C1122.3,232.95,1126.58,240.99,1124.86,249.47z"/>
<path class="st1" d="M1160.36,220.61c1.95,18.75,11.16,32.74,23.52,45.15c8.16,8.19,16.07,16.64,23.95,25.1
	c9.63,10.34,15.57,22.55,19.11,36.25c1.67,6.46,2.17,12.84,1.61,19.2c-1.6,18.24-7.63,34.12-23.11,45.86
	c-6.9,5.24-13.88,9.78-21.74,13.16c-0.94,0.4-1.85,2.01-2.87,0.4c-0.65-1.04-0.05-2.1,0.73-3.14c4-5.36,8.49-10.36,11.12-16.7
	c1.75-4.22,3.55-8.3,3.96-12.98c1.79-20.45-4.94-38.52-14.87-55.85c-8.46-14.75-19.87-27.82-25.56-44.1
	c-3.68-10.53-7.42-21.02-3.98-32.72c1.56-5.3,2.6-10.77,4.72-15.93C1157.55,222.85,1158.46,221.89,1160.36,220.61z"/>
<path class="st0" d="M497.94,409.06c-7.75-16.91-15.3-33.37-22.84-49.83c-17.65-38.57-35.29-77.15-52.94-115.72
	c-2.44-5.33-2.46-5.19,3.33-5.45c8.81-0.4,17.62-1.02,26.43-1.5c1.06-0.06,2.48-0.56,2.97,1.01c0.43,1.39-0.5,2.09-1.63,2.67
	c-7,3.57-7.98,9.73-6.94,16.6c1.9,12.5,7.18,23.85,12.39,35.18c12.23,26.61,24.54,53.18,36.86,79.75c0.75,1.61,1.15,3.5,3.23,5
	c3.68-8.69,7.33-17.22,10.9-25.78c9.97-23.96,19.95-47.91,29.82-71.91c2.54-6.17,4.32-12.62,4.65-19.33
	c0.4-8.26-2.24-15.07-9.93-19.21c-1.32-0.71-3.02-1.35-2.23-3.25c0.67-1.61,2.36-0.87,3.58-0.73c15.28,1.69,30.56,1.99,45.84-0.01
	c1.15-0.15,2.84-0.89,3.32,1.08c0.32,1.31-0.5,2.19-1.64,2.77c-15.03,7.69-21.98,21.76-28.16,36.25
	c-18.14,42.54-36.09,85.16-54.13,127.74C500.19,405.91,499.81,407.59,497.94,409.06z"/>
<path class="st0" d="M393.79,616.7c0,13.99-0.1,27.98,0.07,41.96c0.05,3.69-0.65,5.33-4.88,5.23c-14.49-0.34-28.95,0.84-43.4,1.81
	c-1.4,0.09-3.41,0.78-3.87-1.15c-0.57-2.4,1.77-2.35,3.25-2.81c20.39-6.36,27.56-14.81,28.65-36.21
	c0.82-16.11,0.33-32.29,0.46-48.44c0.02-1.98-0.59-3.44-2.18-4.73c-31.06-25.34-60.4-52.79-92.76-76.54
	c-15.77-11.57-32.76-21.02-51.93-25.96c-1.42-0.36-3.85-0.41-3.09-2.9c0.62-2.03,2.51-0.95,3.88-0.82
	c13.44,1.3,26.92,1.69,40.41,1.58c3.15-0.03,5.67,0.73,8.15,2.85c38,32.36,76.06,64.64,114.19,96.85c2.27,1.92,3.14,3.87,3.11,6.8
	C393.72,588.39,393.8,602.54,393.79,616.7z"/>
<path class="st0" d="M1203.32,566.07c0,30.8-0.07,61.6,0.08,92.4c0.02,3.98-0.89,5.44-5.15,5.54c-13.64,0.32-27.28,1.15-40.92,1.68
	c-1.63,0.06-4.17,1.25-4.71-1.24c-0.56-2.61,2.15-2.45,3.77-2.89c17.73-4.82,24.53-17.87,26.4-34.76c0.95-8.62,1.28-17.26,1.3-25.92
	c0.06-27.3,0.02-54.61,0.02-81.91c0-8.51-0.67-16.94-2.83-25.23c-3.09-11.83-10.53-19.35-22.08-22.98
	c-1.43-0.45-2.89-0.81-4.33-1.22c-1.32-0.37-2.73-0.79-2.33-2.59c0.36-1.62,1.82-1.18,2.89-1.13c14.97,0.61,29.93,1.28,44.91,1.85
	c2.14,0.08,3.01,0.94,2.98,3c-0.03,1.5,0.06,3,0.06,4.49c0,30.3,0,60.6,0,90.9C1203.36,566.07,1203.34,566.07,1203.32,566.07z"/>
<path class="st0" d="M1220.69,565.74c0-30.98,0.07-61.97-0.08-92.95c-0.02-3.84,0.87-5.15,4.91-5.13
	c14.16,0.07,28.31-0.35,42.42-1.72c1.29-0.13,3.27-0.95,3.66,1.33c0.32,1.89-1.4,1.96-2.64,2.29
	c-22.86,6.01-26.53,20.16-28.16,36.87c-1.89,19.43-0.88,38.95-0.86,58.43c0.02,19.64-0.61,39.29,0.56,58.94
	c1.13,18.99,9.68,32.1,28.26,37.94c1.36,0.43,3.33,0.67,2.88,2.72c-0.46,2.05-2.45,1.39-3.79,1.26
	c-14.44-1.37-28.93-1.83-43.42-1.81c-3.92,0.01-3.74-2.07-3.74-4.71C1220.69,628.04,1220.68,596.89,1220.69,565.74z"/>
<path class="st0" d="M190.36,663.44c-4.87,0.45-8.48,0.83-12.1,1.1c-9.46,0.7-17.68,4.37-25.01,10.25
	c-1.56,1.25-3.12,2.49-4.75,3.64c-0.69,0.48-1.62,0.63-2.29-0.06c-0.57-0.58-0.1-1.14,0.26-1.72c9.89-15.99,9.82-34.06,9.98-51.78
	c0.46-50.31,0.31-100.63,0.2-150.94c-0.01-4.64,1.03-6.32,5.94-6.4c13.15-0.23,26.29-1.11,39.44-1.6c1.6-0.06,4.26-1.31,4.66,1.15
	c0.5,3.12-2.86,1.78-4.35,2.69c-0.27,0.16-0.64,0.15-0.97,0.22c-17.59,4.08-25.02,12.72-25.22,30.79
	c-0.34,29.65-0.28,59.31-0.25,88.96c0.01,13.65-0.43,27.32,0.78,40.96C177.7,642.72,180.26,654.07,190.36,663.44z"/>
<path class="st0" d="M708.24,387.11c0,14.16-0.08,28.32,0.06,42.48c0.03,3.37-0.9,4.73-4.5,4.71c-9.67-0.06-19.3,0.82-28.91,1.77
	c-1.27,0.13-2.83,0.49-3.1-1.49c-0.22-1.57,1.07-1.89,2.14-2.29c12.3-4.68,17.91-14.28,19.42-26.73
	c2.39-19.59,0.91-39.27,1.31-58.91c0.03-1.66-0.91-2.82-1.87-3.96c-20.69-24.36-40.16-49.76-61.83-73.27
	c-11.21-12.16-23.63-22.99-39.42-29.11c-1.22-0.47-2.73-1.05-2.16-2.79c0.49-1.48,1.96-0.99,3.03-0.87
	c9.61,1.08,19.26,1.59,28.92,1.6c2.16,0,3.33,1.11,4.53,2.56c26.74,32.31,53.48,64.62,80.26,96.89c1.86,2.24,2.21,4.68,2.2,7.42
	c-0.06,13.99-0.03,27.99-0.03,41.98C708.26,387.11,708.25,387.11,708.24,387.11z"/>
<path class="st0" d="M81.79,336.2c0,30.82-0.12,61.64,0.12,92.45c0.04,4.76-1.55,5.91-5.92,6.01c-8.98,0.22-17.95,0.98-26.93,1.47
	c-1.24,0.07-2.81,0.61-3.51-1.01c-0.58-1.36,0.26-2.17,1.48-2.67c15.19-6.22,18.69-19.64,19.64-33.78
	c2.71-40.42,1.36-80.92,1.04-121.38c-0.04-5.45-0.95-10.91-2.33-16.27c-2.45-9.47-7.84-16.37-16.87-20.36
	c-1.4-0.62-3.71-0.97-2.95-3.23c0.63-1.86,2.64-0.94,4.01-0.87c9.48,0.43,18.96,1.15,28.45,1.37c4.23,0.1,3.79,2.59,3.79,5.32
	C81.79,274.23,81.8,305.22,81.79,336.2z"/>
<path class="st0" d="M321.22,336.03c0-30.65,0.07-61.31-0.08-91.96c-0.02-4.33,0.83-6.09,5.66-6.09c8.98-0.01,17.96-0.9,26.94-1.38
	c1.08-0.06,2.49-0.7,3.09,0.76c0.58,1.41-0.43,2.17-1.61,2.59c-14.56,5.3-17.76,17.67-19.4,31.04c-0.84,6.8-0.95,13.62-0.95,20.45
	c0.03,33.65,0.07,67.3,0.16,100.95c0.02,6.35,1.04,12.62,2.57,18.76c2.31,9.27,8.08,15.85,16.28,20.5c1.3,0.74,3.68,0.93,2.93,3.27
	c-0.65,2.02-2.56,1.04-3.9,0.88c-8.79-1.03-17.61-1.46-26.44-1.33c-4.23,0.07-5.35-1.45-5.33-5.51c0.14-30.98,0.08-61.97,0.08-92.96
	C321.21,336.03,321.21,336.03,321.22,336.03z"/>
<path class="st0" d="M998.54,435.62c-6.81-0.35-13.63-0.92-20.44-0.98c-3.5-0.03-5.3-1.25-6.66-4.5
	c-25.48-60.92-51.07-121.8-76.61-182.69c-3.83-9.13-3.74-8.95,6.14-9.34c4.28-0.17,6.37,0.97,7.96,5.26
	c18.11,48.84,38.72,96.65,59.79,144.26c6,13.56,13.62,26.31,24.66,36.62c2.81,2.62,5.78,4.98,9.09,6.94
	c1.45,0.87,3.96,1.3,3.24,3.73c-0.78,2.67-3.08,0.83-4.69,1.03c-0.81,0.1-1.66-0.1-2.49-0.16
	C998.53,435.74,998.54,435.68,998.54,435.62z"/>
<path class="st0" d="M309.07,336.57c0,30.8-0.07,61.6,0.09,92.4c0.02,4.08-1.15,5.53-5.25,5.64c-8.81,0.25-17.61,0.98-26.42,1.45
	c-1.35,0.07-3.22,0.93-3.73-1.24c-0.49-2.09,1.44-2.36,2.71-2.93c9.51-4.26,14.27-12.01,16.38-21.84c2.08-9.67,2.45-19.5,2.52-29.31
	c0.25-35.62,1.04-71.25-0.49-106.86c-0.25-5.69-1.4-11.21-3.05-16.65c-2.37-7.81-7.39-13.23-14.78-16.58
	c-1.38-0.62-3.85-0.67-3.19-2.99c0.62-2.18,2.85-1.12,4.35-1.06c8.65,0.38,17.28,1.13,25.93,1.29c3.98,0.07,5.01,1.45,4.98,5.28
	c-0.15,25.8-0.08,51.61-0.08,77.42c0,5.33,0,10.66,0,15.98C309.06,336.57,309.06,336.57,309.07,336.57z"/>
<path class="st0" d="M385.57,236.71c5.65,0.4,11.29,0.99,16.94,1.14c3.12,0.09,4.76,1.38,6.01,4.13
	c18.82,41.15,37.71,82.26,56.6,123.38c8.34,18.14,16.72,36.26,25.08,54.38c2.04,4.42,0.33,14.34-3.29,17.48
	c-2.51,2.18-3.34-0.23-4.18-2.02c-4-8.59-7.99-17.19-11.97-25.8c-20.61-44.53-41.19-89.08-61.87-133.59
	c-4.57-9.84-10.09-19.12-17.88-26.88c-3.69-3.68-7.74-6.79-12.66-8.67c-1.24-0.47-2.71-0.96-2.24-2.73
	c0.42-1.57,1.87-1.02,2.95-1.04c2.16-0.05,4.33-0.02,6.49-0.02C385.57,236.57,385.57,236.64,385.57,236.71z"/>
<path class="st0" d="M593.52,641.85c-24.74-11.33-43.47-37.88-44.92-71.58c-1.79-41.64,16.05-69.35,45.79-83.71
	C563.34,538.23,562.74,590.02,593.52,641.85z"/>
<path class="st0" d="M785.7,642.67c20.46-25.76,23.85-56.12,23.12-87.42c-0.45-19.35-4.14-38.07-14.14-55.03
	c-2.3-3.9-5.07-7.53-8.38-12.39c4.29,1.85,7.56,2.9,10.52,4.85c18.57,12.24,29.48,29.53,33.29,51.25
	c4.03,22.92,2.16,45.18-9.34,65.91c-7.35,13.25-18.04,23.36-30.88,31.27c-1.28,0.79-2.53,1.64-4.14,1.48L785.7,642.67z"/>
<path class="st1" d="M1139.66,410.92c-11.65,0.07-21.08-8.53-23.03-19.42c-2.15-12.04,0.21-22.26,10.21-29.97
	c6.93-5.34,14.99-5.86,21.91-1.53c15.67,9.8,16.8,31.74,5.38,44.45C1150.08,408.96,1145.14,411.59,1139.66,410.92z"/>
<path class="st0" d="M217.39,264.47c31.93,33.99,38.79,83.28,17.13,122.97c-6.01,11.01-15.88,22.02-25.9,28.42
	c17.99-22.07,22.23-47.28,22.44-73.64c0.2-25.96-1.16-51.63-14.65-74.91C216.64,266.33,215.05,264.73,217.39,264.47z"/>
<path class="st0" d="M217.39,264.47c-2.34,0.26-0.76,1.87-0.98,2.85c-1.82-1.79-3.52-3.64-3.61-6.4c0,0,0.1-0.11,0.1-0.11
	C214.96,261.33,216.39,262.64,217.39,264.47z"/>
<path class="st1" d="M211.87,259.86c-0.11-0.07-0.22-0.13-0.33-0.2c0.12,0.05,0.25,0.11,0.37,0.16L211.87,259.86z"/>
<path class="st1" d="M211.91,259.82c0.33,0.33,0.66,0.65,0.99,0.98c0,0-0.1,0.11-0.1,0.11c-0.31-0.35-0.62-0.7-0.93-1.05
	C211.87,259.86,211.91,259.82,211.91,259.82z"/>
<polygon class="st0" points="785.75,642.6 785.7,642.83 785.7,642.67 "/>
</svg>
